<svg 
          width="19.170509338378906" 
          height="19.19974136352539" fill="none" 
          xmlns="http://www.w3.org/2000/svg">
          <path d="M 10.433653814599825 0.3513435898604008 C 10.208620595448714 0.12637834234475556 9.903451090679846 0 9.585254096984874 0 C 9.267057103289902 0 8.961887598521033 0.12637834234475556 8.736854379369921 0.3513435898604008 L 0.3368541173662282 8.75134287459126 C 0.11826444032894826 8.977665444876386 -0.002688739834750982 9.280787410627314 0.000045363164651918936 9.59542350822058 C 0.00277946616405482 9.910059605813847 0.1289822075927133 10.211034892657704 0.3514719416297947 10.433524604598862 C 0.5739616756668762 10.65601431654002 0.874936420196645 10.782216775284764 1.1895725490370885 10.784950878012637 C 1.504208677877532 10.78768498074051 1.8073315320390102 10.66673179663712 2.0336541248007105 10.44814214130844 L 2.385254097204935 10.096541917720089 L 2.385254097204935 17.99974150657845 C 2.385254097204935 18.318001268118856 2.5116826809337436 18.623226836505207 2.736726324937019 18.848270458158925 C 2.9617699689402945 19.073314079812643 3.2669944232300883 19.19974136352539 3.585254216377545 19.19974136352539 L 5.985254168620477 19.19974136352539 C 6.303513961767934 19.19974136352539 6.608738416057728 19.073314079812643 6.833782060061003 18.848270458158925 C 7.058825704064278 18.623226836505207 7.1852541447419425 18.318001268118856 7.1852541447419425 17.99974150657845 L 7.1852541447419425 15.599741792684563 C 7.185254144741942 15.281482031144156 7.311682585419606 14.976257607166845 7.536726229422881 14.751213985513127 C 7.761769873426156 14.526170363859409 8.066994327715951 14.39974193573762 8.385254120863408 14.39974193573762 L 10.785254073106339 14.39974193573762 C 11.103513866253795 14.39974193573762 11.408738320543591 14.526170363859409 11.633781964546866 14.751213985513127 C 11.858825608550141 14.976257607166845 11.985254049227805 15.281482031144156 11.985254049227805 15.599741792684563 L 11.985254049227805 17.99974150657845 C 11.985254049227805 18.318001268118856 12.11168248990547 18.623226836505207 12.336726133908744 18.848270458158925 C 12.56176977791202 19.073314079812643 12.866994232201815 19.19974136352539 13.185254025349272 19.19974136352539 L 15.585253977592203 19.19974136352539 C 15.903513770739659 19.19974136352539 16.208738225029453 19.073314079812643 16.433781869032728 18.848270458158925 C 16.658825513036003 18.623226836505207 16.785253953713667 18.318001268118856 16.785253953713667 17.99974150657845 L 16.785253953713667 10.096541917720089 L 17.136853067811025 10.44814214130844 C 17.363175660572725 10.66673179663712 17.66629880083649 10.78768498074051 17.980934929676934 10.784950878012637 C 18.29557105851738 10.782216775284764 18.596546375251727 10.65601431654002 18.81903610928881 10.433524604598862 C 19.041525843325893 10.211034892657704 19.167729459013227 9.910059605813847 19.17046356201263 9.59542350822058 C 19.17319766501203 9.280787410627314 19.05224446889652 8.977665444876386 18.833654791859242 8.75134287459126 L 10.433653814599825 0.3513435898604008 L 10.433653814599825 0.3513435898604008 Z" fill="rgb(151.00000619888306,151.00000619888306,151.00000619888306)"/>
        </svg>